<?xml version="1.0" encoding="utf-8"?>
<!-- Generator: Adobe Illustrator 25.0.1, SVG Export Plug-In . SVG Version: 6.00 Build 0)  -->
<svg version="1.0" id="Layer_1" xmlns="http://www.w3.org/2000/svg" xmlns:xlink="http://www.w3.org/1999/xlink" x="0px" y="0px"
	 viewBox="0 0 344 210" style="enable-background:new 0 0 344 210;" xml:space="preserve">
<style type="text/css">
	.st0{fill:none;}
	.st1{fill:#CC4D2C;}
	.st2{fill:#FFFFFF;}
	.st3{fill:#1A1919;}
	.st4{fill:#6F8F9D;}
	.st5{fill:#E2642A;}
	.st6{fill:#FFFFFE;}
	.st7{fill:#BFC0BF;}
</style>
<rect x="72" y="5" class="st0" width="200" height="200"/>
<path class="st1" d="M108.8,52c3.2-1.1,6.4-2.1,9.7-3V38.2c-3.2,0.9-6.5,1.9-9.7,3C108.8,41.2,108.8,52,108.8,52z M123.9,24.9
	c3.9-0.9,7.1-0.5,9.4,1.1s3.5,4.2,3.5,7.7v8.6c0,2.1-0.8,4.2-2.4,5.7c-2.1,1.8-4.6,3.2-7.3,3.9c3.5-0.1,6,0.4,7.5,1.4
	c1.5,1,2.2,2.7,2.2,5v8.4c1.8-0.3,3.6-0.5,5.4-0.7v11.8c-5.3,0.6-10.7,1.6-15.9,2.7c-2.4,0.6-4.2,0.6-5.4,0.1
	c-1.2-0.5-1.8-1.6-1.8-3.3v-18c-3.4,0.9-6.9,2-10.2,3.2v23c-7.7,2.7-15.2,6.1-22.4,10V83.7c1.6-0.9,3.2-1.7,4.8-2.5V48.6
	c-1.6,0.8-3.2,1.7-4.8,2.5V39.4C98.2,32.9,110.8,28.1,123.9,24.9z"/>
<path class="st2" d="M110.5,56.4L110.5,56.4l-1.4-4.3h-4.6V38l3.1-1c2.4-0.8,4.8-1.6,7.2-2.3l1.4-0.4l1.4-0.4l0,0l5.8-1.6v20.2
	l-3.4,0.9c-2.1,0.6-4.4,1.3-6.8,2.1l-1.3,0.4L110.5,56.4L110.5,56.4L110.5,56.4z M113.7,45.8l0.5-0.2v-1.3l-0.5,0.2V45.8z
	 M123.1,20.6L123.1,20.6c0.8-0.2,1.5-0.3,2-0.4c0.5-0.1,1.2-0.1,2-0.2c3.2-0.3,6.4,0.6,9.1,2.3l0,0l0,0l0.1,0.1
	c0.5,0.4,1,0.7,1.5,1.2c0.4,0.4,0.8,0.9,1.2,1.4c1.9,2.6,2.9,5.7,2.8,8.9l0,0v8.6l0,0c0,1.7-0.3,3.3-1,4.9c-0.5,1.2-1.2,2.3-2,3.2
	c0.3,0.3,0.6,0.6,0.9,1c1.4,1.9,2.2,4.3,2.1,6.7v3.1h0.3l5.1-0.6v21l-4.1,0.5l0,0l-2.2,0.2l-2.2,0.3c-3.7,0.6-7.5,1.2-11.2,2
	c-1.4,0.3-2.7,0.5-4.1,0.6c-1.4,0-2.8-0.2-4.2-0.7l0,0c-1.5-0.6-2.8-1.8-3.5-3.2c-0.7-1.3-1-2.8-1-4.3l0,0V65.5l-1.1,0.3v22.9
	l-3.1,1.1l0,0c-2.1,0.7-4.2,1.5-6.3,2.3c-5.3,2.1-10.6,4.6-15.6,7.3l-6.7,3.7V80.8l2.4-1.2l0,0l0.7-0.4c0.8-0.4-0.5,0.3,0.7-0.4
	l1.1-0.6v-22l-4.9,2.6V36.7l2.4-1.2l0,0c1.7-0.9,3.5-1.8,5.2-2.7c1.7-0.8,3.4-1.6,5.3-2.5C104,26.2,113.4,23,123.1,20.6L123.1,20.6z
	 M125.3,29.5L125.3,29.5c-9.2,2.2-18.1,5.2-26.7,9.1c-1.6,0.7-3.3,1.5-5,2.3c-0.8,0.4-1.7,0.8-2.5,1.2v1.6l4.8-2.4v42.6l-2.6,1.3
	c-0.8,0.4-1.5,0.8-2.3,1.2v1.6c4.3-2.1,8.7-3.9,13.1-5.6l0.3-0.1V59.3l3.1-1.1c2.5-0.9,5-1.7,7.6-2.4l1.5-0.4l1.5-0.4l5.8-1.6v22.9
	c0.5-0.1,1-0.2,1.6-0.3c4.1-0.9,8.2-1.7,12.4-2.3v-2.5h-0.1l-5.3,0.8V58.3c0-0.4,0-0.8-0.2-1.2l0,0c-0.8-0.4-1.7-0.6-2.5-0.5h-1
	c-0.3,0-0.7,0-1.2,0l0,0v-0.1l-1.7-8.9c1.2-0.4,2.5-0.9,3.6-1.5c0.7-0.4,1.4-0.8,2-1.3c0.3-0.3,0.6-0.6,0.8-1
	c0.2-0.4,0.3-0.9,0.2-1.3l0,0v-8.7l0,0c0.1-1.2-0.2-2.3-0.9-3.3c-0.2-0.2-0.4-0.4-0.6-0.6l0,0l-0.1-0.1c-1-0.6-2.2-0.9-3.4-0.8
	c-0.3,0-0.7,0.1-1.1,0.1C126.1,29.3,125.8,29.4,125.3,29.5L125.3,29.5z"/>
<path class="st3" d="M109.4,51.4c3.2-1.1,6.4-2.1,9.7-3V37.5c-3.3,0.9-6.5,1.9-9.7,3L109.4,51.4z M124.5,24.3c3.9-1,7.1-0.5,9.4,1.1
	s3.5,4.2,3.5,7.7v8.6c0,2.2-0.8,4.2-2.4,5.7c-2.1,1.8-4.6,3.1-7.3,3.9c3.5-0.1,6,0.4,7.5,1.4s2.2,2.7,2.2,5v8.4
	c1.8-0.3,3.6-0.5,5.4-0.8v11.8c-5.3,0.6-10.7,1.6-15.9,2.7c-2.4,0.5-4.2,0.6-5.4,0.1c-1.2-0.5-1.8-1.6-1.8-3.3v-18
	c-3.5,0.9-6.9,2-10.2,3.2v23c-7.7,2.7-15.3,6.1-22.5,10V83c1.6-0.9,3.2-1.7,4.8-2.5V48c-1.6,0.8-3.2,1.7-4.8,2.5V38.7
	C98.8,32.3,111.4,27.4,124.5,24.3L124.5,24.3z"/>
<path class="st1" d="M186.6,20v11.7c-1.8-0.1-3.6-0.3-5.4-0.4v32.2c1.8,0.1,3.6,0.2,5.4,0.4v11.7c-9.9-0.9-19.9-0.8-29.8,0.2V64.1
	c1.8-0.2,3.6-0.3,5.4-0.5V31.4c-1.8,0.1-3.6,0.3-5.4,0.5V20.2C166.7,19.2,176.7,19.1,186.6,20"/>
<path class="st2" d="M191,20.1v16.8l-5-0.4l0,0h-0.5v23.3l1.3,0.1l4.2,0.4v21l-5-0.4l0,0c-1.4-0.1-2.7-0.2-4.1-0.3s-2.9-0.2-4.1-0.2
	c-7-0.2-14,0-21,0.7l-5,0.5v-21l4.2-0.4l0,0l0.8-0.1h0.5V36.6h-0.4l-5,0.5v-21l4.1-0.4h0.1c1.6-0.2,3.1-0.3,4.3-0.4
	c1.4-0.1,2.9-0.2,4.3-0.2c7.4-0.4,14.9-0.2,22.2,0.4l4.2,0.4v4.2L191,20.1z M181.8,27v-2.6c-5.6-0.3-11.2-0.4-16.8-0.1
	c-1.4,0.1-2.7,0.1-4.1,0.2v2.6h0.6l0,0l4.9-0.3v41.7l-4.3,0.3l-1.1,0.1v2.7c7-0.5,14-0.5,20.9-0.1v-2.7l-1.1-0.1l-4.4-0.2V26.7
	l4.8,0.3L181.8,27z"/>
<path class="st3" d="M186,20.6v11.7c-1.8-0.2-3.6-0.3-5.4-0.4v32.2c1.8,0.1,3.6,0.2,5.4,0.4v11.7c-9.9-0.9-19.9-0.8-29.8,0.2V64.8
	c1.8-0.2,3.6-0.3,5.4-0.4V32.1c-1.8,0.1-3.6,0.3-5.4,0.5V20.8C166.1,19.8,176.1,19.7,186,20.6"/>
<path class="st1" d="M244,76.7v11.8c-9.2-3.9-18.8-6.8-28.6-8.9V67.9c1.7,0.4,3.4,0.8,5.2,1.2V36.6c-2.1-0.5-4.2-1-6.3-1.4v9.2
	c-4.5-0.9-9.1-1.6-13.8-2.2v-21c20,2.2,39.4,8.2,57.1,17.8v21c-4.1-2.2-8.3-4.2-12.5-6.1v-9.2c-2-0.8-4-1.7-6-2.4v32.4
	C240.7,75.4,242.4,76,244,76.7"/>
<path class="st2" d="M248.5,76.9v18.6l-6.3-2.6h-0.1c-1.2-0.5-2.5-1-3.8-1.5s-2.5-1-3.8-1.4c-6.5-2.3-13.2-4.2-20-5.7l-3.6-0.8V62.4
	l5.1,1.1v-14l-2.6-0.5l0,0l0,0l-1.9-0.4l-1.9-0.3c-3.2-0.6-6.4-1-9.6-1.4l-4.1-0.5V16.2l5.1,0.6l0,0c5.7,0.7,11.4,1.6,17,2.9
	c14.5,3.2,28.5,8.4,41.5,15.5l2.4,1.3v31.4l-6.7-3.6l0,0l0,0l-1.7-0.9l-1.7-0.9c-2.7-1.4-5.5-2.7-8.3-3.9v13.4l2.1,0.9l2.8,1.2
	L248.5,76.9L248.5,76.9z M239.4,82v-2l-1.9-0.8l-3-1.1V35.8l6.2,2.4c1.4,0.5,2.9,1.1,4.4,1.8l0.9,0.4l0.9,0.4l0.1,0.1l2.7,1.3v9.1
	c1.1,0.5,2.2,1,3.3,1.5V41.9c-11.6-6-23.9-10.5-36.7-13.3c-3.6-0.8-7.3-1.5-11-2v11.8c1.5,0.2,3,0.4,4.5,0.7v-9.3l5.5,1.1
	c2.2,0.4,4.3,0.9,6.5,1.4l3.5,0.9V75l-5.1-1.3v2.4C226.6,77.7,233.1,79.6,239.4,82z"/>
<path class="st3" d="M244,78v11.8c-9.2-3.9-18.8-6.8-28.6-8.9V69.1c1.7,0.4,3.4,0.8,5.2,1.2V37.9c-2.1-0.5-4.2-1-6.3-1.4v9.2
	c-4.5-0.9-9.1-1.6-13.8-2.2v-21c20,2.2,39.4,8.2,57.1,17.8v21c-4.1-2.2-8.3-4.2-12.5-6.1V46c-2-0.9-4-1.7-6-2.4V76
	C240.7,76.6,242.4,77.3,244,78"/>
<path class="st4" d="M220.8,180.1v-0.2h-1.2v0.2h0.5v1.6h0.2v-1.6H220.8z M222.8,181.8v-1.9h-0.4l-0.4,1.4l-0.4-1.4h-0.4v1.9h0.2
	v-1.6l0,0l0.5,1.6h0.1l0.5-1.6l0,0v1.6H222.8z"/>
<path class="st2" d="M218.6,154.6c0.8,1.4,1.4,2.9,1.5,4.5c0.1,1.6,0.2,3.2,0.1,4.8v0.2l0.1,0.2c0.1,0.2,0.3,0.4,0.4,0.6
	c0.7,1.3,1.1,2.8,1.1,4.3c0.1,3.3-1.2,6.5-3.7,8.6c-0.4,0.3-0.8,0.6-1.1,0.9l-0.2,0.3c-0.6,1.4-1.4,2.7-2.2,4
	c-2,2.9-5.5,6.7-10.9,7.9c-1.5,0.3-9.6,3.2-12.5,4.2l0.4-2.4l-3.3,0.9l0.2-5.4L188,188c-0.3-0.1-0.6-0.2-1-0.4
	c-3.1-1.2-5.5-3.6-6.8-6.6c-0.4-0.9-0.7-1.8-1.1-2.8l-0.1-0.3l-5.3-1.6c-4.8-0.8-9.2,0.3-10.7,1.7c-0.9,0.8-1.6,1.7-2.1,2.8
	c-0.1,0.2-0.2,0.4-0.2,0.6c0,0.1,0,0.2,0,0.3v0.2l-0.2,1.3l-0.5,4c-1.2-0.6-3.6-1.8-4.6-2.3c-1.4-0.7-2.7-1.5-4-2.3
	c-2.3-1.6-4.4-3.5-6.2-5.7c-0.7-0.9-1.4-1.8-2-2.8l-0.5-0.8l-0.6,0.8c-0.2,0.3-0.4,0.6-0.5,0.9c-0.1,0.2-0.2,0.4-0.2,0.6
	c0,0.1,0,0.2,0,0.3v0.2l-0.2,1.3l-0.5,4c-1.2-0.6-3.6-1.7-4.6-2.3c-1.4-0.7-2.7-1.5-4-2.3c-2.3-1.6-4.4-3.5-6.2-5.7
	c-0.4-0.5-0.8-1.1-1.2-1.6l-0.3-0.4L124,169c-1,0.5-2,0.8-3.1,1.2c-1.7,0.6-8.8,2-11.6,2.6l1-2.6c1.1-2.9,2-5.8,2.7-8.7
	c0.1-0.4,0.1-0.9,0.1-1.4v-0.6l-0.6-0.1c-2-0.3-3.9-0.9-5.7-1.7c-1-0.5-1.9-1.2-2.7-1.9c-1-0.8-2-1.7-2.9-2.6l1.5-1.1l1.2-0.9l1.2-1
	c0.3-0.3,0.6-0.6,0.9-1c0.6-0.8,1.2-1.7,1.6-2.6l0.4-0.9l-1-0.1c-0.6,0-1.2-0.1-1.7-0.2c-1.3-0.2-2.6-0.4-3.8-0.6
	c0.8-2.5,3.6-10.7,5.7-18.3c2.8-10.1,9.7-17.8,13.9-21.3c1.7-1.6,3.4-3.3,5-5l0.5-0.5l-0.5-0.4c-1.2-1.1-2.3-2.2-3.3-3.5
	c-2.2-2.8-5.4-7.9-6.2-11.2l-0.2-0.7l0.3-1.6c0.5-2.8,2.7-5,5.6-5.4c1-0.2,1.9-0.2,2.9-0.2c0.8,0,1.8,0.1,2.9,0.1
	c5.6,0.3,11.3,0.2,16.9-0.3c5.2-0.6,14.2-2.8,14.2-2.8c3.5-0.8,7-1.4,10.6-1.8l0.5-0.1h0.3c2.3-0.2,4.6-0.3,6.9-0.2
	c2.6,0.2,5.2,0.7,7.7,1.5c1.2,0.4,2.3,0.7,3,1h0.2c2.4,0.1,4.8,0.7,7,1.9c1.1,0.6,3.4,2,5.4,3.2l0.2,0.1h0.2l1.9-0.2
	c1.3-0.2,2.6-0.2,3.9,0c2.1,0.4,3.9,2,4.4,4.2c0.1,0.5,0.2,0.9,0.2,1.4v0.4l0.3,0.2c1.6,0.8,4.5,2.7,5.6,5.8
	c0.3,0.9,0.6,1.7,0.7,2.6l0.1,0.4l0.3,0.1c1.2,0.5,2.6,1,4.1,1.6c3.5,1.4,6.1,2.7,8,4.8c0.5,0.5,0.9,1.1,1.3,1.8
	c0.4,0.6,0.8,1.3,1.2,2c1.5,2.7,2.3,5.7,2.4,8.8c0,3.2-0.6,6.4-1.9,9.4c-0.3,0.8-0.8,1.8-1.3,2.8l-0.1,0.2c-0.3,1.8-0.6,3.5-1.1,5.2
	c-0.7,2.6-1.7,5.1-3.2,7.3c-0.7,1-1.5,2-2.4,2.7c-1.3,1.2-3.1,1.6-4.8,1.2c-1.6-0.5-2.9-1.6-3.5-3.1c-0.4-0.8-0.6-1.7-0.6-2.6
	c-0.1-0.7-0.1-1.6-0.1-2.5v-2.2l-1.2,1.9c-1.9,3-4.2,7.5-3.9,10.9c0.2,2.5,0.7,4.9,1.4,7.3l0.1,0.5h0.5
	C215.6,151.8,217.5,152.9,218.6,154.6"/>
<path class="st5" d="M213.7,172.2c-0.1,0.4-0.3,0.9-0.6,1.2c-0.8,0.8-1.9,1.3-2.9,1.6c-0.2,0.3-0.3,0.6-0.4,0.9
	c-0.5,1.3-1.2,2.5-2,3.6c-0.9,1.1-1.9,2-3.2,2.6l-0.3,0.2c0-0.3,0-0.5-0.1-0.8c-0.2-0.6-0.4-1.1-0.7-1.7c-0.3,0.6-0.6,1.2-1,1.7
	c-0.4,0.4-0.9,0.9-1.4,1.2c0-0.3,0-0.6-0.1-0.9c-0.1-0.5-0.4-1-0.6-1.4c0,0-3,2.5-3.1,2.6c-0.1-0.2-0.2-0.4-0.3-0.6
	c-0.3-0.5-0.7-0.8-1.3-1c-0.2-0.1-0.4-0.1-0.6-0.1l-0.6-0.1c-0.3,0-0.7-0.1-1.2-0.2c-0.5-0.1-0.9-0.2-1.4-0.4
	c-1.8-0.8-2.8-2.4-6.2-10.1c-3.4-7.8-8.4-9.5-8.6-9.6l-2.9-0.9c0,0,2.2,4.2,3.8,7c-8.2-2.2-22.8-6.6-29.7-11.6
	c-6.6-4.8-10.5-13.1-10.5-13.1c-0.7,3.8-0.2,7.7,1.6,11.1c1.5,2.9,3.6,5.5,6.2,7.6c-1.9,0.2-3.7,0.6-5.5,1.2c-2.1,0.6-4,1.8-5.5,3.4
	c-0.2-0.1-0.3-0.3-0.5-0.4c-0.9-1-1.7-2.1-2.3-3.3c-0.8-1.4-1.3-3-1.7-4.6c-0.2-0.9-0.4-1.8-0.5-2.8l-5,2.6
	c0.4-3.6,1.2-7.1,2.5-10.5c1.6-4.2,3-8.5,4.1-12.8l-12.4,12.4c0.2-1,0.5-2.1,0.7-3.3c0.5-2.8,1-6.2,1.7-9.5c0.8-4.2,2.9-8.1,6-11.1
	c1.2-1.2,4.4-4.5,4.4-4.5c-1.2,0.2-2.3,0.5-3.4,0.8c-2.3,0.6-4.5,1.5-6.6,2.6c-0.3,0.2-0.6,0.4-0.9,0.6c0.2-0.4,0.4-0.9,0.6-1.5
	c1.1-2.6,2.7-5,4.8-7c4.6-4.3,14-13.5,15-14.4c2.1-1,4.3-1.8,6.5-2.4c2.9-0.6,5.9-1.1,8.8-1.2l-0.8-1.1c-0.1-0.2-3.5-4.5-13.6-4.7
	c-7.5-0.2-11.1-1.8-12.9-3.4c-0.5-0.5-2.5-1.7-4-2.6c1.2,0.1,3,0.3,5.1,0.4c2.9,0.3,5.8,0.3,8.6,0.2c5.3-0.4,10.5-1.1,15.6-2.2
	c-0.4,0.5-0.7,1-1,1.5c-0.9,1.6-1.7,3.2-2.2,4.9c0,0,2.1-3.6,8.1-6.7c1.3-0.7,2.7-1.3,4-1.9l2.9-0.5l-0.3,0.5
	c-0.6,0.9-1.1,1.9-1.4,2.9c2.3-1.3,4.7-2.3,7.1-3.1c2.3-0.7,4.6-1,6.9-1l2.6,0.3l-0.8,0.2c-3.2,0.8-4.2,2.4-4.2,2.4
	c3-0.4,6.1-0.6,9.2-0.5c3.1,0.2,5.6,3.3,7,4.9c2,2.3,5.9,3.2,5.9,3.2s-1.2-1.3-3-3.4c-0.4-0.5-0.8-1-1.1-1.5l5.7,3.5
	c1.2,0.7,2.4,1.3,3.7,1.7c1.4,0.5,2.8,1,4.4,1.7c0.9,0.3,1.8,0.8,2.4,1.4c0.2,0.2,0.3,0.4,0.4,0.6c0.1,0.2,0.1,0.3,0.2,0.5
	c-0.2,0-0.4,0.1-0.6,0.1c-0.6,0.1-1.3,0.3-1.8,0.6c-0.1-0.2-0.3-0.4-0.4-0.6c-0.2-0.2-0.4-0.5-0.6-0.7c-0.4-0.5-1-0.8-1.6-1
	c-0.5-0.1-1.1-0.2-1.7-0.1c-0.3,0-0.6,0.1-0.9,0.2c0,0,3.7,4.7,4.9,5.4c0.7,0.4,1.5,0.7,2.2,0.9c0.9,0.3,2.1,0.7,3.7,1.2
	c6.1,2,8,2.8,9.9,3.9c0.7,0.4,1.4,0.9,1.9,1.5c-0.5,0.1-0.9,0.2-1.4,0.2c-1.6,0.1-4.9-1.3-7.3-1.2c-2.1,0.1-4.7,0.3-5.9,2.5
	c0,0.1-0.1,0.1-0.1,0.2l0,0l-0.1,0.1c-0.1,0.2-0.2,0.5-0.2,0.8c-0.3,1,0,2.1,0.7,2.9c3.7,3.4,6.4,3.3,8,4.4c0.7,0.5,1,1.4,0.9,2.3
	c-0.9,0-1.8,0-2.9,0c-3.3,0.2-6.6,0.7-9.8,1.4c-3.6,0.7-7.3,1.4-10,1.8c-5.4,0.7-12.8-0.2-17.9,2c-2.7,1.1-5.7,3.8-7.7,9
	c-2.3,6-1.7,10.4-0.1,13.8c0.7,1.6,1.7,3,2.8,4.3c1,1.2,2,2.2,2.7,3c2.9,3.4,7.1,9.4,11.2,15.3c4.2,6.1,13.4,7.6,19.7,6.3
	c1.8-0.3,3.5-0.9,5.1-1.6"/>
<path class="st6" d="M189.2,167.5c-4.1-5.9-8.2-11.9-11.2-15.3c-0.7-0.9-1.7-1.8-2.7-3c-1.1-1.3-2.1-2.8-2.8-4.3
	c-1.6-3.4-2.2-7.9,0.1-13.8c2-5.1,5-7.8,7.7-8.9c5.1-2.2,12.5-1.2,17.9-2c2.7-0.4,6.3-1.1,10-1.8c1.8-0.3,3.6-0.7,5.5-0.9l0,0
	l0.7-0.1l0.4-0.1c0.3,0,0.5-0.1,0.8-0.1h0.4l0.8-0.1h0.3h1h1.4c0.4,0,0.8,0,1.3,0h0.3c0.1-0.9-0.2-1.7-0.9-2.3c-1.6-1.1-4.3-1-8-4.4
	c-0.7-0.8-1-1.8-0.7-2.9c0-0.2,0.1-0.5,0.2-0.7c-0.4-0.4-0.8-0.8-1.1-1.3c-0.7-0.9-1.3-1.8-1.9-2.7c0,1.7,0.4,3.4,1.1,5
	c0.9,1.8,2,3.6,3.2,5.2c0,0-4.2-3.8-6-5.8c0.4,0.3,0.7,0.4,0.7,0.4s-2.6-4.3-7-5.3c-0.7-0.2-1.4-0.2-2.2-0.2
	c-5.3,0.2-7.8,3.5-11,4.9c-2.1,0.9-4.3,1.8-6.5,2.5c-1.1,0.3-2.2,0.3-3.3,0.3c-2.8-0.2-2.9-0.4-2.9-0.4c1.4-0.7,2.6-1.6,3.6-2.8
	c0.6-1,1-2.1,1-3.3l0,0c0,0-3.4,0.7-5.3,0.2s-8.4-5.4-13.6-5.4c-4.1-0.1-7.9,2.4-9.3,6.2c0-0.1,0.1-0.1,0.1-0.2l-0.1,0.2
	c1.5-1,3.2-1.7,5-2c1.6-0.1,3.2,0.1,4.7,0.4c0,0-7,3-10.9,9.2c-2.5,4.1-4,8.7-4.5,13.4c0,0,5.9-5.4,10.3-7.2
	c1.6-0.6,3.2-1.3,4.8-2.1c-1.8,1.9-3.4,4.1-4.5,6.5c-5,10.2-5,15.8-5,15.8c0.7-1.2,1.6-2.3,2.6-3.3c1.5-1.4,1.9-1.8,1.9-1.8v-0.3
	c0.8-0.7,1.6-1.4,2.5-2c2-1.3,3.1-2,3.6-2.2c-0.3,1.2-0.6,2.5-0.8,3.7c-1.2,8.3,0.2,19.1,6,22.5c5.4,3.1,9.6,2.6,10.2,2.5h0.2
	c2.1,2.4,3.9,4.9,5.4,7.7c1.4,1.7,2.5,3.5,3.3,5.5c3.4,7.6,4.4,9.2,6.1,10c0.4,0.2,0.9,0.4,1.4,0.4c0.4,0.1,0.8,0.1,1.2,0.2l0.6,0.1
	c0.2,0,0.4,0.1,0.6,0.1c0.5,0.1,1,0.5,1.3,0.9c0.1,0.2,0.2,0.4,0.3,0.6c0.1-0.1,3.1-2.6,3.1-2.6c0.3,0.4,0.5,0.9,0.6,1.4
	c0.1,0.3,0.1,0.6,0.1,0.9c0.5-0.4,1-0.8,1.4-1.2c0.4-0.5,0.8-1.1,1.1-1.7c0.3,0.5,0.6,1.1,0.7,1.7c0,0.3,0.1,0.5,0.1,0.8l0.3-0.2
	c1.2-0.6,2.3-1.5,3.2-2.6c0.8-1.1,1.5-2.3,2-3.5c0.1-0.3,0.3-0.6,0.4-0.9c1.1-0.3,2.1-0.9,3-1.6c0.3-0.4,0.5-0.8,0.6-1.2
	c-1.6,0.8-3.3,1.3-5.1,1.6C202.5,175,193.4,173.6,189.2,167.5"/>
<path class="st3" d="M208.6,161.7l0.3,1.1h-0.2c-0.4,0.1-0.8,0.2-1.2,0.4c-0.4-0.1-0.9-0.2-1.3-0.2c-0.6,0-1.3,0.1-1.9,0.4
	c-0.5-0.2-1.1-0.3-1.6-0.4c-0.2,0-0.5,0-0.7,0.1c-0.1-0.5-0.5-1.5-0.8-2.5c-0.7-3-1.7-5.8-2.9-5.7c-0.9,0-1.6,0.9-2.1,1.7
	s-1.2,2-2.1,3.5c-0.5,0.8-1.1,1.5-1.8,2.1c-0.1-0.2-0.3-0.5-0.4-0.7c-1.6-3.1-1.2-7.9-4-11.2c-2.1-2.6-7.3-2.7-9.6-2.6
	c-0.6-0.7-1.1-1.4-1.6-2c1.8-1.1,5.9-3.3,9.5-3.4c4.7-0.1,7.3,0.9,9.2,3.2c1.3,1.6,2.4,3.3,3.4,5.1c-0.2-2.3-1.1-4.5-2.4-6.4
	c-0.2-0.3-0.5-0.6-0.7-0.9c0.8-0.4,1.7-0.5,2.6-0.3c1.8,0.4,4.5,2.4,6,7.4s1.1,7.5,2.6,9.6C207.9,160.7,208.3,161.3,208.6,161.7z
	 M213.6,172.2c-0.1,0.4-0.3,0.9-0.6,1.2c-0.9,0.8-1.9,1.3-3,1.6c-0.2,0.3-0.3,0.6-0.4,0.9c-0.5,1.3-1.2,2.4-2,3.5
	c-0.9,1.1-1.9,2-3.2,2.6l-0.3,0.2c0-0.3,0-0.5-0.1-0.8c-0.2-0.6-0.4-1.2-0.7-1.7c-0.3,0.6-0.6,1.2-1,1.7c-0.4,0.4-0.9,0.9-1.4,1.2
	c0-0.3,0-0.6-0.1-0.9c-0.1-0.5-0.4-1-0.6-1.4c0,0-3,2.5-3.1,2.6c-0.1-0.2-0.2-0.4-0.3-0.6c-0.3-0.5-0.7-0.8-1.3-0.9
	c-0.2-0.1-0.4-0.1-0.6-0.1l-0.6-0.1c-0.3,0-0.7-0.1-1.2-0.2c-0.5-0.1-0.9-0.3-1.3-0.4c-1.8-0.8-2.8-2.4-6.2-10.1
	c-3.4-7.8-8.4-9.5-8.6-9.6l-2.9-0.9c0,0,2.2,4.2,3.8,7c-8.2-2.2-22.8-6.6-29.7-11.6c-6.6-4.8-10.5-13.1-10.5-13.1
	c-0.8,3.8-0.2,7.7,1.6,11.1c1.5,2.9,3.6,5.5,6.1,7.6c-1.9,0.2-3.7,0.6-5.5,1.2c-2.1,0.7-4,1.8-5.5,3.4c-0.2-0.1-0.3-0.3-0.5-0.4
	c-0.9-1-1.7-2.1-2.3-3.3c-0.8-1.4-1.3-3-1.7-4.6c-0.2-0.9-0.4-1.8-0.5-2.8l-5,2.6c0.1-0.6,0.2-1.4,0.3-2.3c0.5-2.8,1.2-5.6,2.3-8.3
	c1.6-4.2,3-8.5,4.1-12.8l-12.4,12.4c0.2-1,0.4-2.1,0.7-3.3c0.5-2.9,1-6.2,1.7-9.5c0.8-4.2,2.9-8.1,6-11.1c1.2-1.2,4.4-4.5,4.4-4.5
	c-1.2,0.2-2.3,0.5-3.4,0.8c-2.3,0.6-4.5,1.5-6.6,2.6c-0.3,0.2-0.6,0.4-0.9,0.6c0.2-0.4,0.4-0.9,0.6-1.5c1.1-2.6,2.7-5,4.8-7
	c4.6-4.3,14-13.4,15-14.4c2.1-1,4.3-1.8,6.5-2.4c2.9-0.6,5.9-1.1,8.9-1.2l-0.8-1.1c-0.1-0.2-3.5-4.4-13.6-4.7
	c-7.5-0.1-11.2-1.8-12.9-3.3c-0.5-0.5-2.5-1.7-4-2.6c1.3,0.1,3,0.3,5.1,0.4c2.9,0.3,5.7,0.3,8.6,0.1c5.3-0.4,10.5-1.1,15.6-2.2
	c-0.4,0.5-0.7,1-1,1.5c-0.9,1.6-1.7,3.2-2.2,4.9c0,0,2.1-3.6,8.1-6.7c1.5-0.8,2.9-1.4,4-1.9l3-0.5l-0.3,0.5
	c-0.6,0.9-1.1,1.8-1.4,2.9c2.3-1.3,4.7-2.3,7.1-3.1c2.3-0.7,4.6-1,6.9-1l2.6,0.3l-0.8,0.2c-3.2,0.9-4.2,2.4-4.2,2.4
	c3-0.4,6.1-0.6,9.1-0.5c3.2,0.2,5.7,3.2,7,4.8c2,2.3,5.9,3.2,5.9,3.2s-1.2-1.3-3-3.4c-0.4-0.5-0.8-1-1-1.6c2.2,1.4,4.8,2.9,5.7,3.5
	c1.2,0.7,2.4,1.2,3.7,1.7c1.4,0.5,2.8,1,4.4,1.7c0.9,0.3,1.7,0.8,2.4,1.4c0.2,0.2,0.3,0.4,0.4,0.6c0.1,0.2,0.1,0.3,0.2,0.5l-0.6,0.1
	c-0.6,0.1-1.3,0.3-1.8,0.6c-0.1-0.2-0.3-0.4-0.4-0.6c-0.2-0.2-0.4-0.5-0.6-0.7c-0.4-0.5-1-0.8-1.6-1c-0.5-0.1-1.1-0.2-1.7-0.1
	c-0.3,0-0.6,0.1-0.9,0.2c0,0,3.7,4.7,4.9,5.4c0.7,0.4,1.5,0.7,2.2,0.9c1,0.3,2.1,0.7,3.7,1.2c6.1,2,8,2.8,9.9,3.9
	c0.7,0.4,1.3,0.9,1.9,1.5c-0.5,0.1-0.9,0.2-1.4,0.2c-1.6,0.1-4.9-1.3-7.3-1.2c-2.1,0.1-4.7,0.3-5.9,2.5c0,0.1-0.1,0.1-0.1,0.2l0,0
	c0,0,0,0.1-0.1,0.1c-0.1,0.2-0.2,0.5-0.2,0.8c-0.3,1,0,2.1,0.7,2.9c3.7,3.4,6.4,3.4,8,4.4c0.7,0.5,1,1.4,0.9,2.3c-0.9,0-1.8,0-2.9,0
	c-3.3,0.2-6.6,0.7-9.8,1.4c-3.6,0.7-7.3,1.4-10,1.8c-5.4,0.7-12.8-0.2-17.9,2c-2.7,1.1-5.7,3.8-7.7,9c-2.3,6-1.7,10.4-0.1,13.8
	c0.7,1.6,1.7,3,2.8,4.3c1,1.2,2,2.2,2.7,3.1c2.9,3.4,7.1,9.4,11.2,15.3c4.2,6.1,13.4,7.6,19.7,6.3
	C210.2,173.5,211.9,172.9,213.6,172.2L213.6,172.2z M226.8,116.2c0.2-0.3,0.4-0.6,0.5-0.9c0.2-0.3,0.3-0.7,0.4-1
	c0.2-0.1,0.4-0.3,0.7-0.4l0.8-0.4c0,1.8-0.4,3.5-1,5.1c-0.8-0.4-1.6-0.8-2.5-1C226,117.2,226.4,116.7,226.8,116.2z M232.2,112.8
	c-0.1-2.5-0.8-5-2-7.2c-0.3-0.6-0.7-1.2-1.1-1.8c-0.2-0.4-0.9-1.2-0.9-1.2c-1.3-1.4-3.2-2.5-6.7-3.9c-2.2-0.9-4.4-1.7-6.7-2.6
	c0.1-1.5-0.2-3-0.8-4.4c-0.6-1.7-2.4-3-3.9-3.8c-0.9-0.5-1.8-0.9-2.8-1.2c0.2-0.5,0.3-1,0.4-1.5c0.1-0.7,0.3-2.7-1.6-3.1
	c-1.2-0.2-4.3,0.2-6.3,0.5c-2-1.3-5.2-3.3-6.5-3.9c-3.4-1.7-5.6-1.6-6.1-1.5c-1.2-0.5-2.4-0.9-3.7-1.2c-2.2-0.7-4.5-1.2-6.9-1.4
	c-2.1-0.1-4.3,0-6.4,0.2l-0.8,0.1c-4.3,0.5-10.2,1.8-10.2,1.8s-9.4,2.3-14.9,3c-5.9,0.5-11.8,0.7-17.8,0.4c-1.1-0.1-2-0.1-2.8-0.1
	c-0.7,0-1.5,0-2.2,0.1c-1.4,0.2-2.5,1.3-2.7,2.6c0,0.2,0,0.4,0,0.6c0.6,2.5,3.4,7.1,5.6,9.9c1.8,2.3,4,4.3,6.6,5.6
	c-0.6,0.7-1.5,1.8-2.7,3c-1.9,2.2-4,4.2-6.1,6.2c-3.9,3.3-10.3,10.5-12.8,19.7s-4.4,14.5-4.4,14.5c2.4,0.2,4.8-0.3,6.8-1.5
	c-0.5,2.1-0.9,3.9-1.2,5.1c-1.6,5.7-5,8.1-5,8.1c1.8,1.2,3.8,2,6,2.2c1.4,0.2,2.7,0.2,4.1,0c0,2.2-0.1,4.3-0.3,6.5
	c-0.3,2-0.8,3.9-1.5,5.8c0,0,2.6-0.5,4.7-1.2c2.2-0.6,4.2-1.7,6-3.1c0.9,1.7,2,3.4,3.3,4.9c1.6,1.9,3.4,3.6,5.5,5
	c1.1,0.7,2.2,1.4,3.4,2c0,0,0.1-0.8,0.2-1.1c0.1-0.4,0.3-0.8,0.4-1.1c0.8-1.5,1.8-2.8,3-3.9c0.8-0.8,1.8-1.3,2.8-1.8
	c1.1,2.4,2.6,4.7,4.2,6.8c1.6,1.9,3.4,3.6,5.5,5c1.1,0.7,2.2,1.4,3.4,2c0,0,0.1-0.9,0.2-1.1c0.1-0.4,0.3-0.8,0.4-1.1
	c0.7-1.5,1.7-2.8,2.9-3.9c2.8-2.7,9.1-3.6,14.4-2.6l7.3,2.3c0.4,1.2,0.8,2.5,1.7,4.7c2.1,5,8.1,5.6,8.7,5.7l-0.1,3.5l4.1-1.1
	l-0.3,1.9c0,0,5.1-1.8,7-2.2c3.6-0.9,6.7-3.2,8.7-6.4c1-1.4,1.8-2.9,2.4-4.6c0.7-0.4,1.3-0.9,1.9-1.4c1.6-1.5,2.4-3.5,2.3-5.7
	c0-1-0.3-1.9-0.7-2.7c-0.2-0.3-0.4-0.7-0.7-1l-0.3-0.4c0-0.1,0-0.1,0-0.2c0.2-1.8,0.2-3.6,0.1-5.4c-0.3-2.1-1.2-4.5-3.4-4.1
	c-1,0.2-1.6,1.3-2,2.4c-1.3-3.3-3.2-9-3.5-13.9c-0.4-6,4.3-13.1,6.1-15.6h0.4c0.8,0,1.6-0.3,2.3-0.7c0.5,0.2,0.9,0.4,1.4,0.4
	c0.7,0.1,1.3-0.1,1.9-0.4l0.1,0.2c0.3,1.2,0.5,2.4,0.6,3.6c0.1,1.3,0,2.6,0.1,3.6s0.3,2.2,1.5,2.6c1.7,0.5,4.6-4,5.8-8.7
	c0.5-1.8,0.8-3.7,1.1-5.6c0.5-1.1,1.1-2.2,1.5-3.1C231.7,118.3,232.2,115.5,232.2,112.8L232.2,112.8z"/>
<path class="st6" d="M207,92.9c0.2,0.2,0.4,0.4,0.6,0.7s0.3,0.4,0.5,0.6c0.6-0.3,1.3-0.5,2-0.6l0.6-0.1c-0.1-0.2-0.1-0.3-0.2-0.5
	c-0.1-0.2-0.3-0.4-0.4-0.6c-0.3-0.3-0.6-0.5-1-0.7l-2.1,1.1L207,92.9 M228.4,105.9L228.4,105.9c0,0.1-1.6,1.7-2.8,1.8
	c-1.6,0.1-4.7-1-6.6-1.1s-5.3,0.4-5.2,2.2c-0.3-0.2-0.6-0.6-0.6-1c-0.1-1.7,3.3-2.2,5.2-2.1s5,1.2,6.6,1.1c1.2-0.1,2.3-0.4,3.4-0.7
	L228.4,105.9 M228.4,108.8c0.2,1.8-0.6,2.2-1.3,2.5c-1.1,0.4-1.3,1-1.4,2.1c-0.1,0.9-2.4,3.6-2.4,3.6c0.6-1.3,1-2.6,1.4-4
	c-0.1-0.9,0.5-1.8,1.4-2.1C227.1,110.5,227.9,109.8,228.4,108.8 M166.4,91.4L166.4,91.4c-0.1-0.1,2,0.5,6.3-0.6s8.9-2.3,8.9-2.3
	l4.3,2.8l0.2,0.1l6.8,4.4c0.6,0.3,1.3,0.4,1.9,0.4c1.3-0.3,2.3-1.3,2.6-2.6c-0.3,0.3-2.2,2.1-3.6,1.1c-4.6-3.2-11-8.5-11-8.5
	c-5.4,0.2-11.7,3.5-14.2,3.2c-2.3-0.4-4.5-1-6.6-1.7C162.9,89.3,164.5,90.6,166.4,91.4 M181.2,99.9c1.6-0.1,3.1-0.9,4.1-2.1
	c-0.9-0.6-1.8-1.2-2.6-1.9c-0.1,0.2-0.2,0.4-0.3,0.6c-0.3,0.8-0.8,1.5-1.4,2.1c0-1.1,0-2.3-0.1-3.4c0-0.1,0-0.2,0-0.3
	c-2.3,0.2-3.5,0.4-4,0.5c-0.3,0.5-0.5,1.1-0.4,1.7c0.2,1.3,1.2,2.3,2.5,2.7C179.7,99.9,180.4,100,181.2,99.9 M225.5,121.9
	c-2.4-0.6-4.8-1-7.2-1.1c-3.3,0.1-6.7,0.5-9.9,1.3c-3.6,0.7-7.1,1.5-9.7,1.8c-3.2,0.4-8.8,0.5-12.7,0.6c0.7,1.3,2.1,2.1,3.6,2.1
	c0.7,0,1.4-0.4,1.8-1c2.2,2.8,3.3,0.5,4.5,0.9c0.3,1,0.6,2,0.9,3c0.5,2.8,0.7,5.6,0.5,8.4c1.7-1.7,3-3.8,4-6c0.9-2.3,1.5-4.6,1.8-7
	c0,0,1.8,1.3,3,1.1c0.8-0.3,1.6-0.8,2.2-1.4c0.5,0.6,1.2,1,2,1.2c0.9-0.1,1.8-0.4,2.5-0.9c0.7,0.5,1.5,0.9,2.3,1
	c0.8-0.2,1.5-0.5,2.1-1c0.5,0.5,1.1,0.8,1.8,0.9c0.9-0.1,1.8-0.5,2.5-1.1l0.7,1.1c0.9,1.8,1.4,3.8,1.4,5.8c0,0.9,0,1.8,0.1,2.6
	c1.1-1.7,1.9-3.6,2.4-5.5c0.5-2.1,0.9-4.2,1.2-6.3C226.6,122.2,226.1,122,225.5,121.9 M194.8,168.2c4.1,2.5,9.1,3.3,13.8,2.2
	c1.9-0.4,3.7-1.1,5.4-2l0.2-0.1c0.1-0.6,0.1-1.4,0.2-2.2c0.1-1.5,0.1-3,0-4.5c-0.1-0.7-0.3-1.4-0.6-2c-0.3,0.5-0.5,1.1-0.6,1.7
	c-0.3,1-0.7,2-1.2,3c-0.5,1-1,2-1.5,3.1c-0.2-0.2-0.4-0.4-0.7-0.6c-0.7-0.3-1.6-0.1-2.1,0.6c-0.4-0.4-0.9-0.6-1.5-0.6
	c-0.7,0-1.3,0.4-1.7,0.9c-0.5-0.6-1.2-0.9-2-0.9c-1,0.2-1.9,0.7-2.6,1.4c-0.1-1.8-0.2-3.7-0.5-5.5c-0.2-1.3-0.5-2.5-1.1-3.7
	l-0.2,0.3c-0.6,0.8-1.2,1.9-2,3.3c-0.9,1.5-2.2,2.8-3.8,3.7C193,167.1,193.8,167.8,194.8,168.2"/>
<path class="st6" d="M214.5,161.7c-0.1-0.7-0.3-1.5-0.6-2.1c-0.3,0.6-0.5,1.1-0.6,1.8c-0.3,1.1-0.7,2.1-1.2,3.1
	c-0.4,0.9-1.5,3.2-1.5,3.2c-0.2-0.2-0.4-0.4-0.7-0.6c-0.7-0.3-1.6-0.1-2,0.6c-0.4-0.4-0.9-0.7-1.5-0.6c-0.7,0-1.3,0.4-1.7,0.9
	c-0.5-0.6-1.2-1-2-0.9c-1,0.2-1.9,0.7-2.6,1.4c0,0.8-0.1,1.3-0.1,1.3s1.8-1.4,3-1.4c0.8-0.1,1.5,0.3,2,0.9c0.4-0.5,1-0.9,1.7-0.9
	c0.6,0,1.1,0.2,1.5,0.6c0.4-0.7,1.3-1,2.1-0.6c0.4,0.3,0.8,0.6,1.2,1c0,0,1.1-2.6,1.5-3.6c0.4-1.1,0.7-2.1,1-3
	c0.3-1.1,0.2-1.4,0.4-1.8C214.4,161.1,214.5,161.4,214.5,161.7L214.5,161.7 M195,168.2c0.6,0.3,1.2,0.6,1.8,0.9
	c-0.3-0.9-0.3-1.9,0.1-2.8c0.4-1.1,1.7-5.3,1.7-5.3s0.2-0.7,0.5-0.4c0.1,0.1,0.2,0.2,0.2,0.3c-0.2-0.7-0.5-1.3-0.8-2
	c-0.1,0.1-0.2,0.2-0.2,0.3c-0.6,0.8-1.2,1.9-2.1,3.3c-1,1.5-2.3,2.8-3.9,3.6C193.1,167,194,167.6,195,168.2"/>
<path class="st7" d="M225,131.3L225,131.3"/>
<path class="st6" d="M224,132.1c-0.2-0.6,0.7-3,0-6.3c-0.7-3.3-1.3-3-1.3-3l0,0l-1.4,0.5c-0.7,0.6-1.5,0.9-2.4,1.1
	c-0.7-0.1-1.3-0.4-1.8-0.9c-0.6,0.5-1.3,0.8-2.1,0.9c-0.8-0.1-1.6-0.5-2.3-1c-0.7,0.5-1.5,0.9-2.4,0.9c-0.7-0.2-1.4-0.6-1.9-1.2
	c-0.6,0.6-1.3,1.1-2.2,1.4c-1.2,0.2-3-1.1-3-1.1s-0.1,0.6-0.2,1.5c0,0,1.8,1.3,3,1.1c0.8-0.3,1.6-0.7,2.2-1.4c0.5,0.6,1.2,1,1.9,1.2
	c0.9-0.1,1.7-0.4,2.4-0.9c0.7,0.5,1.4,0.9,2.3,1c0.8-0.1,1.5-0.5,2.1-0.9c0.5,0.5,1.1,0.8,1.8,0.9c0.9-0.1,1.7-0.5,2.4-1.1l0.7,1.1
	c0,0,0.3,0.6,0.5,1.1c0.5,1.5,0.8,3.1,0.8,4.7c0,0.9,0,1.8,0.1,2.6c0.5-0.8,1-1.7,1.4-2.6C224.4,132,224.1,132.4,224,132.1
	 M197,129.5c0.5,2.8,0.7,5.6,0.5,8.4c0.9-0.9,1.7-2,2.3-3.1c-0.2,0.3-0.8,1-1.1,0.8s0.5-1.8,0.2-5c-0.2-2.2-0.5-4.4-1-6.6
	c-0.7,0.1-1.6,0.1-2.4,0.2C196.1,126,196.6,127.8,197,129.5 M186.6,124.9c0.8,1.3,2.1,2,3.6,2c0.7,0,1.4-0.3,1.9-0.9
	c1.2,1.3,2,1.4,2.8,1.2c-0.7-0.6-0.9-1.6-0.6-2.5C191.6,124.9,188.8,124.9,186.6,124.9"/>
<path class="st3" d="M208.8,114.4c0,0-4-6.9-9.5-6.8c-5.5,0.1-8,2.4-11.3,3.9c-3.8,1.8-8,2.4-12.2,1.8c4.2,1.6,8.9,1.7,13.1,0.2
	c3.8-1.3,6.4-3.2,10.4-3.2S208.8,114.4,208.8,114.4 M208.1,116.5c-2.1-1.2-4.5-1.9-6.9-2c-3.4,0-7.9,2.2-12.1,2.6
	c-2.4,0.1-4.7,0-7.1-0.3c2.8,1,5.7,1.5,8.7,1.5c5,0,7.3-1.4,11.3-1.6S208.1,116.4,208.1,116.5 M150.4,104.3c1.9-2.5,4.9-4,8.1-4
	c3.3,0,6.6,0.9,9.4,2.7c-1.7,0.2-3.4,0.7-4.8,1.6c-1.5,0.9-2.7,2.1-3.6,3.6c0,0,2.9-3.3,9.2-3.6c3.4-0.1,4.5,0.7,6.6,0.4
	c1.4-0.1,2.8-0.8,3.7-1.9c0,0-3.5,0.7-5.4,0.2s-8.5-5.3-13.8-5.3C155.7,97.9,151.9,100.4,150.4,104.3 M150.4,138.6
	c0.7-1.2,1.6-2.3,2.6-3.2c1.5-1.4,1.9-1.8,1.9-1.8c0.4-3.7,1.4-7.3,2.7-10.8c1.7-3.7,3.9-7.2,6.7-10.2c-3.8,2.5-6.9,6-8.9,10.1
	C150.4,132.9,150.4,138.6,150.4,138.6 M167.2,115.8c-3.6,4.9-5.9,10.6-6.9,16.6c-1.2,8.3,0.2,19.2,5.9,22.6s10.1,2.5,10.1,2.5
	s-6-0.4-10.6-8.1C157.9,136.2,167.2,115.8,167.2,115.8"/>
<path class="st3" d="M206.9,108.1c0,0-3.4-5.6-8.9-5.6s-8.1,3.5-11.4,5c-2.3,1-4.6,1.9-6.9,2.6c0,0,5.9-0.3,9.5-2
	c3.7-1.7,4.9-3.3,8.9-3.4S206.9,108.1,206.9,108.1"/>
<path class="st6" d="M207.7,179.6c0.7-0.9,1.3-1.9,1.8-2.9c-2.8,1.5-5.9,2.3-9,2.3c-5.1-0.2-8.3-2.2-14.2-9.7
	c-1.7-2.3-3.7-4.2-5.9-5.9c2.3,2,4.1,4.6,5.3,7.4c3.4,7.5,4.4,9.1,6.2,9.9c0.4,0.2,0.9,0.3,1.4,0.4c0.4,0.1,0.8,0.1,1.2,0.2l0.6,0.1
	c0.2,0,0.4,0.1,0.6,0.1c0.5,0.1,1,0.5,1.3,0.9c0.1,0.2,0.2,0.4,0.3,0.6c0.1-0.1,3.2-2.5,3.2-2.5c0.3,0.4,0.5,0.9,0.6,1.4
	c0.1,0.3,0.1,0.6,0.1,0.9c0.5-0.4,1-0.8,1.4-1.2c0.4-0.5,0.8-1.1,1.1-1.6c0.3,0.5,0.6,1.1,0.8,1.6c0,0.3,0.1,0.5,0.1,0.8l0.3-0.2
	C205.7,181.5,206.8,180.6,207.7,179.6 M226.6,116.6c0.2-0.3,0.4-0.6,0.5-0.9c0.2-0.3,0.3-0.7,0.4-1c0.2-0.1,0.5-0.3,0.7-0.4l0.8-0.4
	c0,1.8-0.4,3.5-1.1,5.1c-0.9-0.4-1.8-0.8-2.7-1C225.8,117.6,226.3,117.2,226.6,116.6"/>
<path class="st5" d="M208.5,162.3l0.3,1.1h-0.2c-0.4,0.1-0.8,0.2-1.2,0.4c-0.4-0.1-0.9-0.2-1.3-0.2c-0.6,0-1.3,0.1-1.9,0.4
	c-0.5-0.2-1-0.3-1.6-0.4c-0.2,0-0.5,0-0.7,0.1c-0.1-0.5-0.5-1.5-0.8-2.5c-0.7-3-1.7-5.7-2.9-5.6c-0.9,0-1.6,0.9-2,1.6
	s-1.2,2-2.1,3.4c-0.5,0.8-1.1,1.5-1.8,2.1c-0.1-0.2-0.3-0.5-0.4-0.7c-1.5-3.1-1.2-7.7-4-11c-2.1-2.6-7.3-2.7-9.5-2.6
	c-0.6-0.7-1.1-1.4-1.5-2c1.8-1.1,5.9-3.3,9.4-3.4c4.7-0.1,7.2,0.9,9.2,3.2c1.3,1.5,2.4,3.2,3.4,5c-0.2-2.3-1-4.4-2.3-6.3
	c-0.2-0.3-0.5-0.6-0.7-0.9c0.8-0.4,1.7-0.5,2.6-0.3c1.8,0.4,4.5,2.4,6,7.2s1.1,7.4,2.6,9.5C207.8,161.4,208.2,162,208.5,162.3"/>
<path class="st6" d="M129.1,86.5c1.8,1.4,5.4,3,12.8,3.1c0.9,0,1.7,0.1,2.5,0.1l4.8-4.7c0,0-8.8,1.6-15.8,0.9
	c-2.8-0.3-5.5-0.9-8.1-1.9h-0.2C126.6,84.9,128.5,86.1,129.1,86.5"/>
<path class="st6" d="M134,87.3c-2.9-0.6-5.7-1.7-8.3-3.2c1.3,0.8,2.6,1.7,3,2.1c1.8,1.6,5.5,3.3,13.1,3.5c0.9,0,1.7,0.1,2.5,0.2
	l3.6-3.8C145.2,86.9,139.2,88.4,134,87.3"/>
<path class="st3" d="M176.3,97c0-0.6,0.1-1.1,0.4-1.6c0.6-0.1,1.8-0.2,4.1-0.5c0,0.1,0,0.2,0.1,0.3c0.1,1.1,0.2,2.1,0.1,3.2
	c0.6-0.6,1.1-1.3,1.4-2c0.1-0.2,0.2-0.4,0.3-0.5c0.8,0.7,1.7,1.3,2.7,1.8c-1.1,1.2-2.6,1.9-4.2,2c-0.7,0.1-1.5,0-2.2-0.2
	C177.5,99.1,176.4,98.2,176.3,97L176.3,97z M197.1,93.4c0,0-0.5,2.4-2.6,2.7c-0.7,0-1.3-0.1-1.9-0.4l-6.7-4.4l-0.2-0.1l-4.2-2.8
	c0,0-4.5,1.2-8.8,2.3s-6.3,0.5-6.3,0.5s0.8,1.2,4.5,1.9l0.8,0.1l-1.1,0.3c-3.1,0.6-6.2,0.4-9.2-0.6c1.3,1,2.8,1.8,4.4,2.3
	c1.7,0.5,3.4,0.8,5.2,0.6c0,0,0,0.9-2,1.6c-0.9,0.4-1.9,0.6-2.9,0.5c0,0,1.1,1.2,4.2,0.8c0.8-0.1,1.6-0.4,2.3-0.7
	c0.8,2.4,4.5,4,8.7,3.6c2.5-0.1,4.9-1.1,6.7-2.8c1,0.4,2,0.7,3,0.8c5.9,1,7-1.7,7.1-2.9C198,95.6,197.7,94.4,197.1,93.4L197.1,93.4z
	"/>
</svg>
